<?xml version="1.0" encoding="UTF-8"?>
<!-- Generator: visioncortex VTracer 0.6.12 -->
<svg width="1060" height="1055" viewBox="0 0 1060 1055">
<path d="M0 0 C7.157 5.723 11.741 12.915 12.969 22.062 C13.295 32.506 11.418 40.085 4.715 48.121 C-1.451 54.608 -8.247 58.837 -17.305 59.645 C-25.084 59.818 -31.816 59.64 -38.535 55.309 C-38.877 55.097 -38.877 55.097 -40.605 54.023 C-47.24 49.496 -53.128 43.086 -55.535 35.309 C-56.376 26.666 -56.283 18.807 -51.535 11.309 C-51.111 10.624 -50.687 9.94 -50.25 9.234 C-38.157 -8.45 -17.78 -11.863 0 0 Z " fill="currentColor" transform="translate(859.53515625,33.69140625)"/>
<path d="M0 0 C0.336 0 0.336 0 2.036 0.001 C13.707 0.037 24.64 1.188 35.875 4.375 C36.57 4.568 37.265 4.76 37.981 4.958 C61.051 11.522 77.628 25.61 89.319 46.283 C106.96 78.465 102.053 113.808 92.221 147.74 C88.455 160.22 83.839 172.329 78.875 184.375 C78.71 184.78 78.71 184.78 77.877 186.831 C71.978 201.228 64.438 214.8 56.875 228.375 C56.635 228.81 56.635 228.81 55.422 231.01 C46.636 246.842 36.403 261.754 26.226 276.713 C15.449 292.621 5.475 308.931 -2.375 326.5 C-3.188 328.283 -4.001 330.066 -4.815 331.849 C-5.67 333.727 -6.52 335.607 -7.368 337.488 C-9.179 341.499 -11.006 345.502 -12.836 349.504 C-13.154 350.199 -13.472 350.894 -13.799 351.611 C-14.453 353.039 -15.106 354.468 -15.76 355.897 C-16.75 358.061 -17.738 360.227 -18.726 362.392 C-27.108 380.759 -35.62 399.065 -44.125 417.375 C-41.299 420.259 -38.496 423.003 -35.297 425.469 C-34.943 425.743 -34.943 425.743 -33.15 427.131 C-32.399 427.707 -31.649 428.282 -30.875 428.875 C-30.084 429.486 -29.292 430.097 -28.477 430.726 C-26.029 432.613 -23.578 434.495 -21.125 436.375 C-20.391 436.938 -19.656 437.502 -18.9 438.083 C-14.677 441.322 -10.448 444.552 -6.216 447.779 C-3.461 449.882 -0.708 451.988 2.044 454.095 C5.653 456.857 9.264 459.616 12.875 462.375 C13.69 462.998 14.505 463.621 15.344 464.262 C24.991 471.632 34.655 478.976 44.375 486.25 C51.922 491.899 59.432 497.589 66.875 503.375 C67.481 503.845 68.088 504.314 68.712 504.798 C70.623 506.279 72.531 507.764 74.438 509.25 C75.022 509.703 75.606 510.156 76.208 510.622 C79.298 513.041 82.17 515.531 84.875 518.375 C75.728 526.439 66.144 533.671 56.201 540.722 C52.433 543.4 48.685 546.105 44.938 548.812 C44.199 549.345 43.461 549.878 42.701 550.427 C32.712 557.648 22.744 564.907 12.93 572.363 C3.245 579.717 -6.678 586.685 -16.68 593.602 C-26.943 600.7 -37.05 608.014 -47.125 615.375 C-44.967 622.332 -42.192 628.744 -39.062 635.312 C-33.572 647.017 -28.437 658.855 -23.375 670.75 C-16.037 687.981 -8.53 705.128 -0.877 722.221 C1.444 727.406 3.751 732.597 6.055 737.789 C8.151 742.513 10.254 747.231 12.406 751.93 C12.741 752.666 13.077 753.402 13.422 754.16 C14.083 755.61 14.75 757.058 15.422 758.504 C17.043 762.088 17.875 764.379 17.875 768.375 C9.772 769.196 1.667 770.006 -6.438 770.812 C-7.723 770.941 -9.008 771.069 -10.332 771.201 C-28.805 773.041 -47.286 774.764 -65.778 776.405 C-69.176 776.706 -72.573 777.009 -75.971 777.312 C-86.176 778.222 -96.382 779.127 -106.59 780.012 C-110.882 780.386 -115.173 780.768 -119.464 781.152 C-121.49 781.331 -123.516 781.507 -125.543 781.679 C-128.326 781.917 -131.109 782.165 -133.892 782.417 C-134.305 782.451 -134.305 782.451 -136.396 782.622 C-138.314 782.801 -140.222 783.078 -142.125 783.375 C-143.703 786.532 -143.686 789.99 -144.017 793.464 C-144.1 794.302 -144.183 795.14 -144.269 796.003 C-144.545 798.797 -144.815 801.592 -145.086 804.387 C-145.279 806.35 -145.472 808.313 -145.665 810.276 C-146.177 815.48 -146.685 820.685 -147.191 825.89 C-147.695 831.06 -148.203 836.23 -148.711 841.4 C-149.77 852.193 -150.823 862.985 -151.872 873.778 C-152.11 876.221 -152.348 878.663 -152.586 881.106 C-154.921 905.058 -154.921 905.058 -155.965 916.513 C-156.289 920.068 -156.619 923.622 -156.95 927.176 C-157.113 928.945 -157.273 930.715 -157.43 932.485 C-157.665 935.124 -157.911 937.761 -158.16 940.398 C-158.228 941.193 -158.296 941.987 -158.365 942.806 C-158.547 944.671 -158.826 946.525 -159.125 948.375 C-161.125 949.375 -161.125 949.375 -163.187 948.701 C-164.039 948.324 -164.891 947.947 -165.77 947.559 C-166.741 947.131 -167.713 946.704 -168.714 946.264 C-169.778 945.785 -170.842 945.306 -171.938 944.812 C-172.493 944.565 -172.493 944.565 -175.303 943.314 C-184.998 938.961 -194.568 934.359 -204.122 929.706 C-212.313 925.718 -220.541 921.821 -228.812 918 C-239.202 913.197 -249.579 908.369 -259.938 903.5 C-260.644 903.168 -261.35 902.836 -262.078 902.495 C-270.087 898.73 -278.077 894.929 -286.035 891.059 C-286.753 890.71 -287.47 890.361 -288.209 890.002 C-291.636 888.335 -295.06 886.663 -298.48 884.983 C-299.703 884.386 -300.926 883.789 -302.148 883.191 C-303.21 882.67 -304.271 882.149 -305.365 881.612 C-307.649 880.588 -309.682 879.862 -312.125 879.375 C-312.511 879.947 -312.898 880.519 -313.296 881.109 C-322.519 894.752 -331.949 908.208 -341.677 921.495 C-349.351 931.986 -356.748 942.639 -364.031 953.405 C-368.465 959.954 -372.965 966.436 -377.594 972.848 C-380.88 977.407 -384.093 982.019 -387.312 986.625 C-387.883 987.441 -388.454 988.258 -389.042 989.099 C-390.164 990.705 -391.287 992.312 -392.409 993.918 C-394.22 996.511 -396.031 999.104 -397.844 1001.695 C-398.394 1002.482 -398.943 1003.268 -399.51 1004.079 C-405.433 1012.499 -405.433 1012.499 -407.125 1014.375 C-407.785 1014.375 -408.445 1014.375 -409.125 1014.375 C-410.355 1012.992 -410.355 1012.992 -411.742 1011.035 C-412.001 1010.673 -412.001 1010.673 -413.313 1008.839 C-413.87 1008.047 -414.426 1007.254 -415 1006.438 C-415.579 1005.624 -416.157 1004.811 -416.753 1003.973 C-418.55 1001.445 -420.338 998.91 -422.125 996.375 C-423.171 994.902 -424.218 993.429 -425.266 991.957 C-432.447 981.845 -439.476 971.631 -446.479 961.396 C-452.072 953.226 -457.713 945.093 -463.433 937.012 C-467.349 931.479 -471.241 925.93 -475.125 920.375 C-484.719 906.657 -494.376 892.984 -504.125 879.375 C-508.666 880.771 -512.841 882.597 -517.062 884.75 C-517.409 884.924 -517.409 884.924 -519.164 885.807 C-523.107 887.802 -527.021 889.846 -530.914 891.938 C-548.012 901.084 -565.587 909.113 -583.228 917.144 C-587.103 918.908 -590.974 920.68 -594.843 922.457 C-608.166 928.573 -621.518 934.625 -634.971 940.452 C-636.756 941.226 -638.54 942.005 -640.323 942.785 C-640.859 943.015 -640.859 943.015 -643.574 944.18 C-644.506 944.582 -645.437 944.984 -646.397 945.398 C-649.317 946.444 -652.045 947.034 -655.125 947.375 C-656.125 946.375 -656.125 946.375 -656.223 942.996 C-656.216 941.602 -656.204 940.207 -656.188 938.812 C-656.183 938.102 -656.178 937.391 -656.174 936.658 C-656.162 934.897 -656.144 933.136 -656.125 931.375 C-656.73 931.645 -657.336 931.916 -657.96 932.194 C-794.675 993.116 -794.675 993.116 -861.203 970.32 C-882.271 962.152 -898.479 948.402 -908.438 927.938 C-912.829 917.853 -915.56 907.247 -917.125 896.375 C-917.187 895.981 -917.187 895.981 -917.5 893.988 C-920.795 867.754 -913.415 841.006 -905.125 816.375 C-904.887 815.666 -904.649 814.958 -904.404 814.228 C-893.785 783.218 -878.481 752.675 -861.912 724.427 C-860.275 721.632 -858.655 718.829 -857.039 716.022 C-848.858 701.82 -840.493 687.835 -831.125 674.375 C-830.006 672.753 -828.888 671.13 -827.77 669.508 C-814.016 649.644 -799.762 630.146 -784.023 611.801 C-782.125 609.375 -782.125 609.375 -781.125 606.375 C-781.7 606.103 -782.275 605.831 -782.867 605.55 C-785.14 604.367 -787.162 603.047 -789.258 601.574 C-790.055 601.016 -790.851 600.458 -791.672 599.883 C-792.523 599.282 -793.374 598.681 -794.25 598.062 C-794.694 597.75 -794.694 597.75 -796.941 596.17 C-804.973 590.509 -812.943 584.766 -820.894 578.993 C-823.933 576.789 -826.978 574.595 -830.023 572.401 C-838.757 566.104 -847.455 559.76 -856.125 553.375 C-856.848 552.843 -857.57 552.311 -858.315 551.763 C-861.468 549.441 -864.62 547.12 -867.77 544.795 C-871.945 541.715 -876.124 538.643 -880.312 535.582 C-880.736 535.272 -880.736 535.272 -882.882 533.7 C-884.493 532.521 -886.105 531.344 -887.72 530.169 C-892.373 526.757 -896.789 523.183 -901.125 519.375 C-897.432 515.543 -893.549 512.172 -889.375 508.875 C-888.725 508.359 -888.075 507.842 -887.406 507.311 C-877.727 499.649 -867.898 492.181 -858.001 484.804 C-857.671 484.558 -857.671 484.558 -856 483.312 C-855.671 483.068 -855.671 483.068 -854.009 481.829 C-849.426 478.397 -844.948 474.853 -840.5 471.25 C-835.277 467.024 -829.947 463.024 -824.456 459.155 C-812.5 450.725 -800.961 441.735 -789.434 432.734 C-783.689 428.249 -777.909 423.81 -772.125 419.375 C-776.452 409.192 -781.061 399.146 -785.75 389.125 C-786.052 388.479 -786.354 387.833 -786.666 387.167 C-789.366 381.395 -792.069 375.625 -794.775 369.856 C-803.069 352.16 -811.08 334.35 -818.98 316.475 C-821.527 310.716 -824.092 304.966 -826.664 299.219 C-827.772 296.739 -828.88 294.26 -829.987 291.78 C-830.699 290.187 -831.413 288.595 -832.127 287.003 C-833.117 284.795 -834.104 282.585 -835.09 280.375 C-835.384 279.723 -835.678 279.07 -835.981 278.398 C-837.308 275.413 -838.389 272.554 -839.125 269.375 C-820.872 266.548 -802.61 263.785 -784.342 261.062 C-782.218 260.745 -780.094 260.428 -777.97 260.112 C-755.429 256.75 -732.886 253.409 -710.339 250.086 C-708.064 249.75 -705.788 249.414 -703.513 249.078 C-699.95 248.551 -696.386 248.027 -692.823 247.503 C-690.885 247.218 -688.946 246.931 -687.008 246.644 C-685.861 246.476 -684.713 246.308 -683.531 246.134 C-682.53 245.987 -681.528 245.839 -680.496 245.687 C-678.125 245.375 -678.125 245.375 -676.125 245.375 C-676.089 244.545 -676.052 243.715 -676.015 242.86 C-675.283 228.963 -673.621 215.176 -672.035 201.355 C-671.727 198.644 -671.419 195.932 -671.112 193.22 C-670.388 186.836 -669.66 180.453 -668.931 174.07 C-667.866 164.751 -666.807 155.432 -665.748 146.113 C-665.59 144.721 -665.432 143.329 -665.274 141.937 C-665.235 141.596 -665.235 141.596 -665.039 139.872 C-664.514 135.256 -663.988 130.639 -663.46 126.023 C-663.32 124.79 -663.179 123.558 -663.035 122.288 C-662.764 119.908 -662.492 117.529 -662.219 115.15 C-661.626 109.946 -661.053 104.743 -660.551 99.53 C-660.465 98.646 -660.378 97.762 -660.289 96.851 C-660.135 95.246 -659.987 93.64 -659.848 92.034 C-659.5 88.42 -659.075 85.482 -657.125 82.375 C-656.223 82.726 -655.321 83.077 -654.392 83.438 C-653.786 83.674 -653.18 83.909 -652.555 84.152 C-651.167 84.692 -649.779 85.232 -648.39 85.772 C-644.422 87.315 -640.454 88.858 -636.486 90.401 C-628.932 93.338 -621.379 96.276 -613.827 99.217 C-610.711 100.431 -607.596 101.644 -604.48 102.857 C-602.947 103.454 -601.414 104.051 -599.881 104.648 C-592.146 107.661 -584.407 110.66 -576.636 113.58 C-564.563 118.117 -552.67 123.073 -540.767 128.032 C-533.857 130.908 -526.93 133.738 -520 136.562 C-518.85 137.032 -517.7 137.502 -516.515 137.986 C-515.985 138.201 -515.985 138.201 -513.305 139.293 C-512.374 139.672 -511.443 140.051 -510.484 140.442 C-508.718 141.14 -506.926 141.775 -505.125 142.375 C-499.002 134.274 -492.921 126.155 -487.051 117.87 C-483.529 112.912 -479.928 108.015 -476.312 103.125 C-470.059 94.663 -463.881 86.149 -457.734 77.609 C-455.576 74.613 -453.414 71.62 -451.252 68.627 C-450.169 67.128 -449.086 65.629 -448.004 64.129 C-445.277 60.35 -442.545 56.575 -439.805 52.805 C-434.134 44.994 -428.543 37.141 -423.102 29.167 C-418.545 22.497 -413.847 15.93 -409.125 9.375 C-404.837 13.387 -401.508 17.775 -398.125 22.562 C-396.969 24.181 -395.813 25.8 -394.656 27.418 C-394.363 27.83 -394.363 27.83 -392.879 29.916 C-390.146 33.748 -387.385 37.561 -384.625 41.375 C-383.542 42.875 -382.458 44.375 -381.375 45.875 C-381.107 46.246 -381.107 46.246 -379.75 48.125 C-374.875 54.875 -374.875 54.875 -373.25 57.125 C-372.166 58.626 -371.082 60.126 -369.998 61.627 C-367.299 65.363 -364.602 69.1 -361.91 72.84 C-351.508 87.283 -340.97 101.622 -330.268 115.844 C-326.16 121.311 -322.122 126.826 -318.125 132.375 C-311.667 129.069 -305.554 125.421 -299.5 121.438 C-288.26 114.058 -276.688 107.233 -265.125 100.375 C-264.347 99.912 -263.568 99.45 -262.766 98.973 C-257.899 96.083 -253.017 93.222 -248.125 90.375 C-247.642 90.094 -247.642 90.094 -245.2 88.672 C-237.525 84.21 -229.833 79.78 -222.125 75.375 C-221.669 75.113 -221.669 75.113 -219.36 73.79 C-180.8 51.779 -180.8 51.779 -165.125 53.375 C-161.257 54.657 -158.717 56.586 -156.25 59.875 C-153.531 65.918 -153.344 71.911 -155.188 78.25 C-156.174 82.474 -156.149 86.431 -155.879 90.728 C-155.833 91.496 -155.787 92.265 -155.74 93.057 C-154.918 105.61 -153.525 118.122 -152.23 130.634 C-151.84 134.403 -151.455 138.173 -151.07 141.943 C-150.424 148.256 -149.774 154.569 -149.123 160.881 C-148.288 168.969 -147.459 177.057 -146.631 185.145 C-145.916 192.135 -145.198 199.126 -144.48 206.116 C-144.251 208.348 -144.022 210.581 -143.793 212.813 C-143.366 216.972 -142.937 221.131 -142.508 225.29 C-142.382 226.517 -142.256 227.745 -142.127 229.01 C-141.56 234.484 -140.964 239.936 -140.125 245.375 C-139.265 245.504 -138.405 245.633 -137.519 245.766 C-129.328 246.995 -121.137 248.23 -112.947 249.47 C-108.738 250.108 -104.529 250.743 -100.32 251.374 C-64.524 256.738 -64.524 256.738 -49.125 260.375 C-50.445 263.777 -51.804 266.597 -53.938 269.562 C-54.248 269.996 -54.248 269.996 -55.82 272.191 C-56.581 273.242 -57.341 274.293 -58.125 275.375 C-59.102 276.738 -60.079 278.101 -61.055 279.465 C-74.27 297.886 -87.784 316.052 -102.512 333.297 C-104.904 336.102 -107.24 338.95 -109.562 341.812 C-117.635 351.712 -125.997 361.326 -134.668 370.703 C-137.295 373.56 -139.854 376.468 -142.398 379.398 C-158.049 397.315 -174.307 414.82 -191.278 431.491 C-197.309 437.445 -202.906 443.694 -208.125 450.375 C-211.828 448.862 -213.845 446.694 -216.438 443.688 C-222.248 437.088 -227.815 431.298 -235.125 426.375 C-234.746 424.438 -234.746 424.438 -234.125 422.375 C-232.8 421.691 -231.466 421.025 -230.125 420.375 C-229.441 419.05 -228.775 417.716 -228.125 416.375 C-226 414.625 -226 414.625 -224.125 413.375 C-224.64 408.164 -227.289 404.339 -230 400 C-230.491 399.208 -230.982 398.416 -231.488 397.599 C-239.045 385.563 -247.402 374.732 -257.125 364.375 C-258.853 362.403 -260.563 360.418 -262.262 358.422 C-267.463 352.708 -272.952 347.708 -279.125 343.062 C-279.497 342.782 -279.497 342.782 -281.38 341.36 C-325.75 308.135 -378.131 291.311 -433.806 298.558 C-457.843 302.08 -479.699 308.998 -501.125 320.375 C-501.785 320.719 -502.445 321.063 -503.125 321.417 C-526.765 333.797 -547.546 351.55 -564.125 372.375 C-565 373.437 -565.876 374.498 -566.754 375.559 C-600.59 416.879 -617.341 472.151 -612.664 525.246 C-608.627 564.001 -594.738 596.92 -572.922 628.887 C-572.299 629.801 -571.675 630.716 -571.033 631.658 C-569.733 633.509 -568.391 635.332 -567.014 637.127 C-566.354 637.999 -565.695 638.871 -565.016 639.77 C-564.413 640.538 -563.81 641.306 -563.188 642.097 C-562.125 644.375 -562.125 644.375 -562.808 647.027 C-565.583 651.975 -570.658 655.03 -575.125 658.375 C-575.656 658.773 -576.187 659.171 -576.734 659.581 C-585.867 666.328 -585.867 666.328 -589.621 666.469 C-593.245 664.886 -595.365 662.245 -597.812 659.25 C-598.334 658.624 -598.856 657.998 -599.394 657.353 C-608.281 646.495 -615.31 634.603 -622.042 622.332 C-624.44 618.001 -626.943 613.73 -629.422 609.445 C-630.828 606.911 -632.033 604.402 -633.188 601.75 C-635.671 597.424 -637.624 596.375 -642.125 594.375 C-642.785 594.375 -643.445 594.375 -644.125 594.375 C-645.973 608.314 -647.761 622.256 -648.707 636.289 C-648.92 639.403 -649.289 642.138 -649.949 645.211 C-650.601 649.028 -650.71 650.816 -649.125 654.375 C-644.168 659.422 -637.955 663.003 -631.947 666.652 C-628.436 668.795 -625.01 671.055 -621.579 673.322 C-619.118 674.942 -616.644 676.538 -614.164 678.129 C-610.684 680.363 -607.223 682.623 -603.773 684.902 C-602.89 685.484 -602.007 686.065 -601.098 686.664 C-599.428 687.763 -597.761 688.867 -596.098 689.975 C-594.564 690.981 -593.018 691.967 -591.458 692.931 C-589.85 693.926 -588.273 694.973 -586.726 696.059 C-584.139 697.685 -582.118 698.738 -579.125 699.375 C-574.741 698.312 -571.278 696.098 -567.5 693.688 C-566.961 693.364 -566.961 693.364 -564.235 691.729 C-560.83 689.662 -557.473 687.533 -554.125 685.375 C-553.046 684.684 -551.967 683.993 -550.855 683.281 C-540.303 676.474 -529.97 669.365 -519.805 661.996 C-514.978 658.526 -510.044 655.213 -505.125 651.875 C-497.319 646.573 -489.569 641.212 -481.927 635.678 C-479.9 634.212 -477.868 632.754 -475.836 631.297 C-466.503 624.593 -457.263 617.779 -448.093 610.854 C-446.112 609.366 -444.124 607.888 -442.133 606.414 C-433.172 599.767 -424.466 592.861 -415.845 585.779 C-413.605 583.951 -411.335 582.163 -409.062 580.375 C-404.158 576.47 -399.45 572.348 -394.727 568.227 C-390.189 564.275 -385.58 560.43 -380.898 556.648 C-378.797 554.926 -376.724 553.185 -374.664 551.414 C-374.076 550.91 -373.487 550.405 -372.881 549.885 C-371.735 548.899 -370.591 547.909 -369.451 546.916 C-367.007 544.817 -365.215 543.405 -362.125 542.375 C-362.125 541.715 -362.125 541.055 -362.125 540.375 C-360.48 538.613 -360.48 538.613 -358.312 536.688 C-357.605 536.044 -356.897 535.401 -356.168 534.738 C-355.494 534.288 -354.82 533.839 -354.125 533.375 C-350.354 534.632 -350.197 535.656 -348.312 539.062 C-343.5 546.978 -336.801 553.032 -330.125 559.375 C-338.74 568.087 -347.719 576.403 -357.281 584.066 C-360.617 586.775 -363.872 589.568 -367.125 592.375 C-373.046 597.475 -379.055 602.452 -385.125 607.375 C-386.855 608.791 -388.584 610.208 -390.312 611.625 C-391.221 612.367 -392.13 613.11 -393.066 613.875 C-394.677 615.191 -396.287 616.508 -397.894 617.828 C-412.696 629.986 -427.899 641.55 -443.352 652.867 C-446.403 655.103 -449.439 657.357 -452.461 659.633 C-467.3 670.768 -482.719 681.047 -498.125 691.375 C-469.211 707.467 -439.192 715.87 -406 715.688 C-405.287 715.685 -404.574 715.683 -403.839 715.681 C-383.389 715.583 -364.656 712.383 -345.125 706.375 C-343.863 705.996 -342.601 705.617 -341.301 705.227 C-321.686 698.802 -302.416 686.907 -286.125 674.375 C-285.308 673.751 -284.49 673.127 -283.648 672.484 C-276.804 667.139 -270.447 661.318 -264.125 655.375 C-263.488 654.792 -262.851 654.21 -262.195 653.609 C-227.276 620.528 -203.561 566.186 -201.125 518.375 C-201.147 516.036 -201.197 513.697 -201.273 511.359 C-201.308 510.171 -201.343 508.982 -201.379 507.758 C-201.46 505.319 -201.565 502.882 -201.691 500.445 C-201.92 490.461 -201.92 490.461 -198.039 485.953 C-196.76 484.733 -195.455 483.539 -194.125 482.375 C-192.953 481.193 -191.786 480.006 -190.625 478.812 C-188.88 477.091 -187.128 475.378 -185.375 473.664 C-182.415 470.744 -179.578 467.785 -176.875 464.625 C-171.802 458.748 -166.192 453.385 -160.668 447.938 C-155.465 442.802 -150.364 437.641 -145.609 432.082 C-143.561 429.727 -141.36 427.552 -139.125 425.375 C-135.599 421.886 -132.257 418.328 -129.027 414.566 C-126.642 411.819 -124.204 409.123 -121.75 406.438 C-121.276 405.918 -120.801 405.399 -120.313 404.863 C-117.504 401.809 -114.616 398.878 -111.625 396 C-107.461 391.902 -103.97 387.442 -100.426 382.816 C-97.145 378.572 -93.676 374.593 -90 370.688 C-84.767 365.12 -79.889 359.352 -75.125 353.375 C-74.192 352.222 -73.258 351.07 -72.324 349.918 C-65.688 341.714 -59.277 333.361 -52.998 324.881 C-51.516 322.898 -50.022 320.926 -48.52 318.958 C-40.822 308.841 -33.627 298.442 -26.562 287.875 C-24.458 284.739 -22.352 281.604 -20.246 278.469 C-19.733 277.704 -19.221 276.94 -18.692 276.153 C-15.271 271.058 -11.81 265.992 -8.324 260.941 C-3.963 254.62 0.314 248.251 4.5 241.812 C5.14 240.828 5.781 239.843 6.441 238.829 C11.019 231.759 15.489 224.645 19.718 217.361 C21.021 215.124 22.343 212.899 23.664 210.672 C45.974 172.725 73.249 120.031 62.875 74.375 C58.811 61.404 51.811 52.075 39.711 45.711 C31.267 41.842 23.042 39.732 13.875 38.375 C12.595 38.182 11.315 37.988 9.996 37.789 C5.596 37.317 1.223 37.351 -3.195 37.418 C-3.926 37.428 -4.656 37.438 -5.408 37.449 C-8.461 37.494 -11.513 37.544 -14.565 37.622 C-16.817 37.677 -19.068 37.705 -21.32 37.73 C-22 37.754 -22.679 37.778 -23.379 37.803 C-29.372 37.835 -33.47 35.81 -37.867 31.777 C-41.282 27.361 -42.489 24.206 -42.406 18.566 C-41.747 13.43 -39.328 9.517 -35.625 6 C-25.292 -0.717 -11.949 -0.016 0 0 Z M-427.125 92.375 C-427.991 93.522 -428.809 94.705 -429.609 95.898 C-430.126 96.663 -430.642 97.427 -431.174 98.215 C-431.455 98.633 -431.455 98.633 -432.875 100.75 C-438.909 109.657 -445.135 118.402 -451.469 127.097 C-453.193 129.468 -454.908 131.844 -456.621 134.223 C-457.197 135.022 -457.774 135.822 -458.367 136.646 C-459.457 138.16 -460.547 139.674 -461.637 141.188 C-461.887 141.534 -461.887 141.534 -463.152 143.289 C-463.637 143.961 -464.121 144.633 -464.621 145.325 C-466.704 148.164 -468.86 150.947 -471.026 153.724 C-472.125 155.375 -472.125 155.375 -472.125 157.375 C-468.306 158.956 -464.488 160.537 -460.669 162.117 C-459.378 162.652 -458.088 163.186 -456.798 163.72 C-446.579 167.951 -436.352 172.164 -426.125 176.375 C-426.125 148.655 -426.125 120.935 -426.125 92.375 C-426.455 92.375 -426.785 92.375 -427.125 92.375 Z M-391.125 92.375 C-391.125 120.425 -391.125 148.475 -391.125 177.375 C-387.541 176.18 -384.141 175.028 -380.68 173.587 C-380.27 173.417 -380.27 173.417 -378.194 172.556 C-377.761 172.376 -377.761 172.376 -375.57 171.461 C-374.669 171.086 -373.767 170.712 -372.838 170.326 C-369.975 169.136 -367.112 167.943 -364.25 166.75 C-362.302 165.94 -360.354 165.13 -358.406 164.32 C-353.645 162.341 -348.885 160.359 -344.125 158.375 C-345.695 154.217 -347.579 151.289 -350.375 147.812 C-354.756 142.267 -358.851 136.559 -362.875 130.75 C-368.226 123.032 -373.707 115.427 -379.331 107.906 C-382.702 103.38 -385.888 98.78 -388.943 94.034 C-389.138 93.76 -389.138 93.76 -390.125 92.375 C-390.455 92.375 -390.785 92.375 -391.125 92.375 Z M-602.125 143.375 C-600.812 146.855 -599.285 149.999 -597.395 153.199 C-596.846 154.133 -596.298 155.066 -595.733 156.028 C-595.141 157.029 -594.548 158.031 -593.938 159.062 C-592.669 161.221 -591.4 163.38 -590.133 165.539 C-589.474 166.66 -588.816 167.78 -588.138 168.935 C-584.832 174.585 -581.574 180.262 -578.312 185.938 C-573.549 194.218 -568.731 202.458 -563.762 210.617 C-562.444 212.838 -561.234 215.045 -560.125 217.375 C-556.196 216.065 -555.579 214.441 -553.312 211 C-549.353 205.098 -545.223 199.342 -541 193.625 C-540.427 192.846 -539.853 192.067 -539.262 191.264 C-535.755 186.518 -532.155 181.876 -528.415 177.312 C-527.125 175.375 -527.125 175.375 -527.125 172.375 C-536.458 168.588 -545.794 164.806 -555.132 161.032 C-559.468 159.279 -563.804 157.524 -568.137 155.765 C-572.317 154.068 -576.5 152.377 -580.683 150.688 C-582.281 150.043 -583.878 149.395 -585.474 148.746 C-587.706 147.838 -589.94 146.937 -592.175 146.037 C-592.838 145.766 -593.5 145.495 -594.183 145.215 C-597.005 144.086 -599.052 143.375 -602.125 143.375 Z M-222.203 144.84 C-222.83 145.105 -223.458 145.37 -224.104 145.643 C-226.196 146.528 -228.286 147.42 -230.375 148.312 C-230.733 148.465 -230.733 148.465 -232.542 149.234 C-250.85 157.023 -268.992 165.189 -287.125 173.375 C-285.461 177.75 -283.25 181.456 -280.625 185.312 C-280.185 185.966 -279.745 186.619 -279.292 187.292 C-275.066 193.532 -270.683 199.656 -266.277 205.769 C-263.521 209.611 -260.825 213.494 -258.125 217.375 C-242.543 203.519 -232.531 175.713 -222.25 157.375 C-221.661 156.325 -221.073 155.275 -220.466 154.194 C-219.923 153.222 -219.38 152.251 -218.82 151.25 C-218.583 150.826 -218.583 150.826 -217.383 148.68 C-216.248 146.599 -215.169 144.503 -214.125 142.375 C-217.144 142.375 -219.428 143.665 -222.203 144.84 Z M-633.125 160.375 C-635.765 186.445 -638.405 212.515 -641.125 239.375 C-638.692 240.592 -637.604 240.354 -634.922 240.045 C-634.055 239.948 -633.187 239.852 -632.293 239.752 C-631.823 239.696 -631.823 239.696 -629.445 239.414 C-628.481 239.304 -627.517 239.194 -626.523 239.081 C-624.48 238.846 -622.437 238.609 -620.395 238.369 C-617.271 238.002 -614.145 237.645 -611.02 237.289 C-609.036 237.06 -607.053 236.831 -605.07 236.602 C-604.135 236.494 -603.199 236.387 -602.235 236.276 C-601.361 236.173 -600.487 236.07 -599.586 235.963 C-599.203 235.919 -599.203 235.919 -597.263 235.692 C-595.168 235.381 -593.168 234.925 -591.125 234.375 C-592.386 231.097 -593.778 228.004 -595.453 224.918 C-595.916 224.065 -596.379 223.213 -596.855 222.334 C-597.357 221.419 -597.858 220.505 -598.375 219.562 C-598.902 218.598 -599.429 217.633 -599.973 216.639 C-604.465 208.47 -609.149 200.421 -613.885 192.391 C-618.587 184.387 -623.054 176.27 -627.395 168.064 C-627.857 167.199 -628.32 166.333 -628.797 165.441 C-629.2 164.678 -629.603 163.914 -630.019 163.127 C-631.125 161.375 -631.125 161.375 -633.125 160.375 Z M-185.125 161.375 C-185.501 162.057 -185.877 162.739 -186.264 163.441 C-196.693 182.339 -207.257 201.156 -218.289 219.711 C-218.762 220.508 -219.236 221.305 -219.723 222.126 C-220.589 223.58 -221.459 225.031 -222.333 226.479 C-225.125 231.157 -225.125 231.157 -225.125 233.375 C-218.951 234.377 -212.776 235.374 -206.601 236.366 C-204.501 236.704 -202.401 237.043 -200.301 237.384 C-197.281 237.874 -194.26 238.36 -191.238 238.844 C-190.302 238.997 -189.365 239.15 -188.4 239.308 C-187.519 239.448 -186.639 239.588 -185.732 239.732 C-184.961 239.857 -184.191 239.981 -183.397 240.109 C-180.954 240.395 -178.582 240.42 -176.125 240.375 C-176.994 230.664 -177.871 220.955 -178.759 211.246 C-179.172 206.738 -179.581 202.229 -179.983 197.72 C-180.372 193.369 -180.768 189.018 -181.17 184.668 C-181.322 183.008 -181.471 181.348 -181.617 179.688 C-181.822 177.362 -182.038 175.038 -182.255 172.714 C-182.314 172.027 -182.372 171.34 -182.432 170.632 C-182.77 167.143 -183.279 164.383 -185.125 161.375 Z M-496.724 189.786 C-497.182 190.448 -497.641 191.111 -498.113 191.793 C-498.647 192.543 -499.182 193.294 -499.732 194.067 C-500.295 194.89 -500.858 195.714 -501.438 196.562 C-502.663 198.294 -503.891 200.025 -505.121 201.754 C-505.765 202.667 -506.41 203.58 -507.074 204.52 C-511.286 210.383 -515.737 216.066 -520.146 221.782 C-520.796 222.63 -521.447 223.478 -522.117 224.352 C-522.698 225.105 -523.28 225.859 -523.878 226.635 C-525.125 228.375 -525.125 228.375 -525.125 229.375 C-488.423 234.317 -488.423 234.317 -474.504 223.781 C-473.814 223.235 -473.125 222.688 -472.415 222.125 C-468.899 219.438 -465.173 217.093 -461.461 214.69 C-458.689 212.894 -455.928 211.084 -453.184 209.246 C-452.424 208.74 -451.664 208.234 -450.881 207.713 C-449.125 206.375 -449.125 206.375 -448.125 204.375 C-453.141 202.416 -458.158 200.459 -463.176 198.503 C-464.882 197.839 -466.587 197.173 -468.292 196.507 C-470.748 195.548 -473.206 194.59 -475.664 193.633 C-476.421 193.337 -477.177 193.041 -477.956 192.736 C-493.303 186.767 -493.303 186.767 -496.724 189.786 Z M-328.023 190.133 C-329.052 190.509 -330.081 190.884 -331.141 191.272 C-331.695 191.474 -331.695 191.474 -334.5 192.5 C-345.291 196.421 -356.141 200.036 -367.125 203.375 C-365.861 207.166 -364.509 207.724 -361.199 209.887 C-360.686 210.225 -360.686 210.225 -358.092 211.936 C-357.01 212.637 -355.927 213.339 -354.812 214.062 C-352.712 215.441 -350.612 216.82 -348.512 218.199 C-347.977 218.54 -347.977 218.54 -345.274 220.265 C-342.125 222.375 -342.125 222.375 -339.332 224.661 C-330.22 231.838 -321.935 231.326 -310.875 230.875 C-309.147 230.835 -307.419 230.798 -305.691 230.766 C-301.5 230.678 -297.314 230.541 -293.125 230.375 C-295.722 224.751 -299.483 219.769 -302.954 214.66 C-304.229 212.78 -305.498 210.896 -306.766 209.012 C-311.569 201.906 -316.405 194.787 -322.125 188.375 C-324.144 188.375 -326.16 189.448 -328.023 190.133 Z M-416.043 226.707 C-416.328 226.881 -416.328 226.881 -417.771 227.76 C-419.624 228.894 -421.468 230.04 -423.312 231.188 C-424.586 231.972 -425.859 232.757 -427.132 233.541 C-430.248 235.463 -433.355 237.398 -436.46 239.337 C-437.951 240.267 -439.446 241.191 -440.941 242.115 C-462.611 255.514 -462.611 255.514 -468.125 264.375 C-468.125 265.695 -468.125 267.015 -468.125 268.375 C-460.308 267.549 -452.73 265.867 -445.057 264.191 C-444.039 263.974 -443.021 263.756 -441.973 263.531 C-441.065 263.333 -440.158 263.136 -439.223 262.932 C-432.377 261.702 -425.585 261.214 -418.637 261.172 C-418.248 261.168 -418.248 261.168 -416.282 261.151 C-413.792 261.133 -411.303 261.127 -408.812 261.125 C-407.962 261.124 -407.111 261.123 -406.234 261.122 C-393.624 261.132 -381.477 261.64 -369.125 264.375 C-368.306 264.551 -367.487 264.728 -366.643 264.91 C-363.374 265.617 -360.108 266.328 -356.854 267.104 C-353.474 267.909 -350.626 268.375 -347.125 268.375 C-347.639 263.993 -349.055 261.806 -352 258.562 C-352.699 257.772 -353.397 256.982 -354.117 256.168 C-361.723 248.651 -371.361 243.219 -380.5 237.812 C-381.594 237.162 -382.688 236.512 -383.815 235.842 C-407.806 221.64 -407.806 221.64 -416.043 226.707 Z M-551.031 267.441 C-551.769 269.068 -552.46 270.717 -553.125 272.375 C-554.012 274.151 -554.899 275.926 -555.799 277.695 C-557.151 280.374 -558.448 283.078 -559.746 285.784 C-560.749 287.873 -561.761 289.958 -562.773 292.043 C-563.425 293.393 -564.076 294.743 -564.727 296.094 C-564.875 296.4 -564.875 296.4 -565.626 297.947 C-568.629 304.23 -571.374 310.353 -571.812 317.375 C-571.878 318.324 -571.944 319.272 -572.012 320.25 C-572.049 320.951 -572.086 321.653 -572.125 322.375 C-567.972 321.855 -565.549 319.377 -562.562 316.688 C-557.078 311.896 -551.378 307.487 -545.5 303.188 C-545.091 302.888 -545.091 302.888 -543.02 301.37 C-539.618 298.887 -536.21 296.419 -532.746 294.023 C-522.173 286.641 -515.03 277.116 -508.125 266.375 C-508.125 266.045 -508.125 265.715 -508.125 265.375 C-516.742 264.465 -525.338 264.002 -534 263.812 C-535.292 263.75 -536.583 263.687 -537.914 263.623 C-548.394 263.444 -548.394 263.444 -551.031 267.441 Z M-279.121 263.461 C-279.792 263.482 -280.462 263.503 -281.153 263.525 C-282.568 263.571 -283.982 263.62 -285.397 263.672 C-287.551 263.75 -289.706 263.817 -291.861 263.883 C-303.372 264.269 -303.372 264.269 -308.125 265.375 C-301.844 278.167 -294.346 287.265 -282.32 294.719 C-277.555 297.676 -273.064 300.973 -268.562 304.312 C-268.163 304.608 -268.163 304.608 -266.143 306.102 C-260.422 310.357 -254.784 314.712 -249.224 319.176 C-245.224 322.375 -245.224 322.375 -244.125 322.375 C-243.804 312.907 -247.488 306.006 -251.801 297.926 C-254.479 292.766 -256.939 287.498 -259.438 282.25 C-260.919 279.148 -262.401 276.047 -263.897 272.952 C-264.625 271.425 -265.335 269.89 -266.005 268.337 C-267.677 264.551 -267.677 264.551 -269.775 263.725 C-272.929 263.255 -275.934 263.357 -279.121 263.461 Z M-224.125 268.375 C-223.185 274.544 -220.241 279.851 -217.508 285.385 C-216.571 287.295 -215.664 289.216 -214.756 291.139 C-211.277 298.315 -208.093 303.334 -201.125 307.375 C-199.978 308.153 -198.834 308.936 -197.695 309.727 C-196.548 310.487 -195.4 311.245 -194.25 312 C-192.958 312.854 -191.667 313.708 -190.375 314.562 C-190.035 314.787 -190.035 314.787 -188.316 315.922 C-185.934 317.502 -183.56 319.093 -181.188 320.688 C-180.366 321.238 -179.545 321.789 -178.699 322.357 C-177.082 323.442 -175.467 324.528 -173.852 325.616 C-173.12 326.106 -172.387 326.596 -171.633 327.102 C-170.979 327.541 -170.326 327.98 -169.653 328.432 C-168.125 329.375 -168.125 329.375 -167.125 329.375 C-166.68 318.745 -168.016 308.239 -169.125 297.688 C-169.318 295.811 -169.511 293.934 -169.703 292.057 C-170.171 287.495 -170.646 282.935 -171.125 278.375 C-181.388 275.839 -191.703 273.987 -202.125 272.25 C-204.483 271.853 -206.841 271.456 -209.198 271.057 C-210.651 270.812 -212.103 270.569 -213.556 270.326 C-217.092 269.733 -220.614 269.103 -224.125 268.375 Z M-610.496 270.871 C-611.459 271.024 -612.422 271.177 -613.414 271.335 C-615.434 271.657 -617.453 271.983 -619.472 272.311 C-622.576 272.815 -625.681 273.307 -628.787 273.799 C-630.753 274.114 -632.718 274.43 -634.684 274.746 C-635.15 274.82 -635.15 274.82 -637.508 275.194 C-638.363 275.335 -639.218 275.475 -640.099 275.619 C-640.855 275.741 -641.61 275.863 -642.388 275.989 C-644.125 276.375 -644.125 276.375 -645.125 277.375 C-645.487 279.669 -645.787 281.972 -646.062 284.277 C-646.147 284.983 -646.232 285.688 -646.32 286.415 C-646.593 288.714 -646.86 291.013 -647.125 293.312 C-647.216 294.086 -647.306 294.859 -647.4 295.656 C-648.71 306.882 -649.803 318.071 -650.125 329.375 C-643.946 325.944 -638.115 322.109 -632.263 318.153 C-628.489 315.607 -624.711 313.096 -620.828 310.719 C-620.16 310.301 -619.491 309.882 -618.803 309.452 C-617.57 308.683 -616.327 307.931 -615.072 307.201 C-609.634 303.761 -607.101 298.957 -604.125 293.375 C-603.599 292.403 -603.073 291.43 -602.531 290.429 C-600.914 287.402 -599.328 284.36 -597.75 281.312 C-597.205 280.269 -596.659 279.226 -596.098 278.15 C-592.125 270.509 -592.125 270.509 -592.125 269.375 C-598.417 269.199 -604.292 269.857 -610.496 270.871 Z M-135.125 282.375 C-134.81 287.71 -134.475 293.043 -134.125 298.375 C-134.053 299.511 -133.981 300.646 -133.906 301.816 C-133.834 302.784 -133.762 303.753 -133.688 304.75 C-133.627 305.603 -133.566 306.457 -133.504 307.336 C-133.125 309.375 -133.125 309.375 -131.125 311.375 C-130.864 311.053 -130.864 311.053 -129.543 309.426 C-126.092 305.19 -122.643 300.961 -119.078 296.82 C-118.576 296.236 -118.075 295.652 -117.558 295.05 C-116.57 293.902 -115.577 292.757 -114.581 291.616 C-111.125 287.596 -111.125 287.596 -111.125 285.375 C-114.562 284.872 -118 284.373 -121.438 283.875 C-122.414 283.732 -123.39 283.589 -124.396 283.441 C-124.865 283.374 -124.865 283.374 -127.238 283.031 C-128.102 282.906 -128.966 282.78 -129.857 282.65 C-132.125 282.375 -132.125 282.375 -135.125 282.375 Z M-689.827 283.078 C-690.413 283.154 -690.413 283.154 -693.381 283.543 C-694.652 283.712 -695.924 283.881 -697.234 284.055 C-698.562 284.229 -699.889 284.404 -701.217 284.578 C-704.723 285.04 -708.228 285.503 -711.734 285.967 C-715.246 286.431 -718.758 286.893 -722.27 287.355 C-734.89 289.017 -747.508 290.69 -760.125 292.375 C-756.947 294.818 -753.782 296.68 -750.199 298.492 C-749.009 299.099 -747.819 299.705 -746.63 300.312 C-746.007 300.628 -745.385 300.944 -744.743 301.269 C-730.981 308.261 -717.506 315.678 -704.125 323.375 C-701.024 325.152 -697.92 326.922 -694.812 328.688 C-694.154 329.067 -693.496 329.446 -692.817 329.837 C-688.351 332.375 -688.351 332.375 -686.125 332.375 C-684.691 321.815 -683.566 311.227 -682.5 300.625 C-682.432 299.953 -682.364 299.281 -682.293 298.588 C-682.097 296.648 -681.904 294.707 -681.711 292.766 C-681.598 291.632 -681.485 290.498 -681.369 289.329 C-681.125 286.375 -681.125 286.375 -681.125 282.375 C-684.109 282.375 -686.87 282.688 -689.827 283.078 Z M-778.125 323.375 C-776.476 328.868 -774.1 333.907 -771.625 339.062 C-771.183 339.989 -770.741 340.915 -770.285 341.869 C-766.992 348.712 -763.486 355.419 -759.892 362.107 C-756.08 369.285 -752.723 376.649 -749.436 384.08 C-747.544 388.341 -745.676 392.454 -743.125 396.375 C-737.916 394.728 -733.903 391.516 -729.562 388.312 C-728.765 387.73 -727.968 387.148 -727.147 386.549 C-721.607 382.494 -716.101 378.394 -710.629 374.246 C-708.41 372.588 -706.159 371.004 -703.875 369.438 C-702.967 368.757 -702.06 368.076 -701.125 367.375 C-701.125 366.715 -701.125 366.055 -701.125 365.375 C-701.681 365.074 -702.238 364.774 -702.811 364.464 C-712.996 358.953 -723.152 353.404 -733.188 347.625 C-741.306 342.956 -749.468 338.371 -757.663 333.836 C-758.961 333.118 -760.258 332.398 -761.555 331.677 C-763.379 330.665 -765.205 329.656 -767.031 328.648 C-768.086 328.065 -769.141 327.482 -770.229 326.88 C-772.821 325.533 -775.392 324.401 -778.125 323.375 Z M-606.125 342.375 C-612.131 346.032 -618.13 349.7 -624.125 353.375 C-624.866 353.828 -625.607 354.282 -626.371 354.749 C-647.356 367.606 -647.356 367.606 -652.125 372.375 C-653.66 394.046 -649.584 416.257 -645.125 437.375 C-643.805 437.375 -642.485 437.375 -641.125 437.375 C-640.795 436.564 -640.465 435.753 -640.125 434.917 C-638.515 430.98 -636.887 427.051 -635.25 423.125 C-634.946 422.394 -634.642 421.663 -634.329 420.91 C-630.646 412.091 -626.76 403.447 -622.328 394.977 C-621.927 394.21 -621.526 393.443 -621.113 392.652 C-620.307 391.115 -619.502 389.577 -618.696 388.039 C-611.647 374.55 -604.858 361.052 -605.125 345.375 C-605.29 344.88 -605.29 344.88 -606.125 342.375 Z M-211.125 343.375 C-210.027 359.293 -204.53 369.889 -195.125 382.375 C-191.999 379.965 -189.242 377.57 -186.688 374.562 C-186.153 373.937 -185.618 373.312 -185.066 372.668 C-184.426 371.911 -183.785 371.155 -183.125 370.375 C-182.051 369.121 -180.977 367.867 -179.902 366.613 C-179.378 366.001 -178.853 365.389 -178.312 364.759 C-177.92 364.302 -177.529 363.846 -177.125 363.375 C-177.663 363.053 -178.201 362.732 -178.755 362.4 C-181.274 360.893 -183.794 359.384 -186.312 357.875 C-187.219 357.332 -188.126 356.789 -189.06 356.229 C-195.371 352.443 -201.646 348.605 -207.887 344.703 C-210.125 343.375 -210.125 343.375 -211.125 343.375 Z M-687.125 397.375 C-687.682 397.883 -688.239 398.391 -688.812 398.914 C-689.576 399.602 -690.339 400.291 -691.125 401 C-691.496 401.336 -691.496 401.336 -693.375 403.039 C-696.154 405.4 -699.017 407.575 -701.944 409.747 C-705.777 412.608 -709.54 415.559 -713.312 418.5 C-714.093 419.107 -714.874 419.714 -715.678 420.34 C-719.514 423.327 -723.339 426.325 -727.125 429.375 C-724.598 437.996 -720.649 445.849 -716.688 453.875 C-715.353 456.593 -714.022 459.312 -712.691 462.031 C-712.376 462.676 -712.06 463.32 -711.735 463.984 C-709.415 468.734 -707.223 473.523 -705.125 478.375 C-704.465 478.375 -703.805 478.375 -703.125 478.375 C-702.929 477.804 -702.733 477.233 -702.531 476.645 C-700.636 471.505 -698.363 466.948 -695.438 462.312 C-694.383 460.616 -693.329 458.918 -692.276 457.22 C-691.48 455.945 -690.676 454.674 -689.864 453.409 C-683.347 443.106 -680.935 435.789 -682.796 423.699 C-683.159 421.136 -683.39 418.58 -683.602 416 C-684.234 408.498 -684.234 408.498 -684.527 405.543 C-684.594 404.834 -684.661 404.125 -684.73 403.395 C-685.173 401.128 -686.011 399.388 -687.125 397.375 Z M-91.125 427.375 C-98.394 433.587 -105.149 440.043 -111.344 447.336 C-112.568 448.737 -113.843 450.096 -115.156 451.414 C-115.806 452.082 -116.456 452.75 -117.125 453.438 C-117.723 454.027 -118.321 454.616 -118.938 455.223 C-120.79 458.58 -120.044 460.713 -119.125 464.375 C-117.945 467.127 -116.541 469.711 -115.062 472.312 C-114.685 472.996 -114.308 473.68 -113.92 474.385 C-112.998 476.054 -112.063 477.715 -111.125 479.375 C-108.842 475.951 -107.355 472.376 -105.789 468.594 C-105.629 468.209 -105.629 468.209 -104.817 466.264 C-104.138 464.634 -103.461 463.003 -102.785 461.372 C-101.765 458.91 -100.738 456.451 -99.711 453.992 C-91.249 433.682 -91.249 433.682 -90.125 429.375 C-90.455 428.715 -90.785 428.055 -91.125 427.375 Z M-60.125 451.375 C-74.201 483.683 -74.201 483.683 -80.125 498.375 C-78.394 500.106 -76.167 499.495 -73.86 499.499 C-73.106 499.496 -72.353 499.492 -71.576 499.489 C-70.786 499.489 -69.996 499.489 -69.181 499.489 C-66.557 499.488 -63.933 499.48 -61.309 499.473 C-59.494 499.471 -57.679 499.469 -55.865 499.468 C-51.079 499.465 -46.293 499.455 -41.508 499.444 C-36.628 499.433 -31.749 499.429 -26.869 499.424 C-17.288 499.413 -7.706 499.396 1.875 499.375 C-0.942 496.528 -3.634 493.834 -6.918 491.535 C-7.622 491.037 -8.325 490.538 -9.051 490.024 C-9.797 489.501 -10.543 488.977 -11.312 488.438 C-23.81 479.54 -35.884 470.116 -47.715 460.352 C-58.661 451.375 -58.661 451.375 -60.125 451.375 Z M-775.188 465.062 C-784.391 472.508 -794.018 479.346 -803.678 486.182 C-805.386 487.39 -807.092 488.601 -808.796 489.815 C-810.406 490.962 -812.021 492.103 -813.64 493.238 C-814.359 493.751 -815.079 494.264 -815.82 494.793 C-816.46 495.244 -817.099 495.696 -817.758 496.161 C-817.984 496.361 -817.984 496.361 -819.125 497.375 C-819.125 498.035 -819.125 498.695 -819.125 499.375 C-791.405 499.375 -763.685 499.375 -735.125 499.375 C-737.511 493.411 -739.895 487.486 -742.473 481.609 C-742.771 480.927 -743.069 480.246 -743.376 479.543 C-743.997 478.121 -744.62 476.7 -745.243 475.278 C-746.191 473.116 -747.136 470.953 -748.08 468.789 C-748.69 467.396 -749.3 466.003 -749.91 464.609 C-750.049 464.291 -750.049 464.291 -750.753 462.677 C-752.435 458.85 -754.226 455.099 -756.125 451.375 C-761.52 451.375 -770.856 461.549 -775.188 465.062 Z M-661.125 470.375 C-663.402 474.638 -665.677 478.902 -667.949 483.168 C-668.718 484.611 -669.488 486.054 -670.258 487.496 C-675.714 497.709 -680.997 507.994 -686.125 518.375 C-685.644 519.035 -685.164 519.695 -684.668 520.375 C-681.4 524.861 -678.138 529.352 -674.91 533.867 C-674.348 534.652 -673.785 535.436 -673.206 536.245 C-672.091 537.8 -670.979 539.357 -669.87 540.916 C-666.498 545.614 -662.949 550.035 -659.125 554.375 C-654.442 552.071 -651.461 550.2 -649.125 545.375 C-648.911 542.613 -648.844 540.061 -648.922 537.309 C-648.928 536.914 -648.928 536.914 -648.957 534.919 C-648.998 532.404 -649.06 529.89 -649.125 527.375 C-649.16 525.757 -649.195 524.14 -649.229 522.522 C-649.34 517.66 -649.481 512.799 -649.625 507.938 C-649.697 505.467 -649.769 502.997 -649.838 500.526 C-649.883 498.948 -649.931 497.369 -649.981 495.79 C-650.109 491.511 -650.058 487.287 -649.883 483.008 C-649.865 479.446 -649.958 478.623 -652.023 475.551 C-652.841 474.936 -653.658 474.321 -654.5 473.688 C-655.312 473.044 -656.124 472.401 -656.961 471.738 C-659.125 470.375 -659.125 470.375 -661.125 470.375 Z M-152.422 487.613 C-152.901 488.18 -153.381 488.747 -153.875 489.332 C-154.401 489.95 -154.927 490.568 -155.469 491.205 C-156.015 491.859 -156.562 492.513 -157.125 493.188 C-157.672 493.83 -158.218 494.473 -158.781 495.135 C-165.347 502.9 -165.347 502.9 -165.539 508.609 C-165.579 509.652 -165.618 510.694 -165.659 511.767 C-165.689 512.875 -165.719 513.983 -165.75 515.125 C-165.781 516.254 -165.813 517.384 -165.845 518.547 C-165.906 520.799 -165.964 523.051 -166.02 525.303 C-166.108 527.887 -166.271 530.438 -166.5 533.012 C-167.084 541.883 -167.084 541.883 -164.117 546.5 C-161.906 548.995 -159.671 551.228 -157.125 553.375 C-152.938 551.859 -150.982 548.849 -148.562 545.312 C-148.14 544.703 -147.717 544.094 -147.282 543.467 C-146.372 542.147 -145.467 540.823 -144.567 539.496 C-143.578 538.041 -142.579 536.592 -141.573 535.149 C-140.009 532.903 -138.471 530.642 -136.938 528.375 C-136.444 527.67 -135.95 526.965 -135.441 526.238 C-134.993 525.561 -134.544 524.885 -134.082 524.188 C-133.68 523.596 -133.277 523.004 -132.863 522.395 C-131.445 518.514 -132.761 515.191 -134.384 511.554 C-134.905 510.606 -135.425 509.657 -135.961 508.68 C-136.531 507.634 -137.1 506.589 -137.688 505.512 C-137.987 504.974 -137.987 504.974 -139.5 502.25 C-140.09 501.166 -140.681 500.082 -141.289 498.965 C-146.574 489.335 -146.574 489.335 -149.125 486.375 C-151.125 486.375 -151.125 486.375 -152.422 487.613 Z M-821.125 533.375 C-821.125 534.035 -821.125 534.695 -821.125 535.375 C-818.661 537.275 -816.189 539.056 -813.625 540.812 C-812.854 541.348 -812.083 541.884 -811.289 542.436 C-808.905 544.089 -806.516 545.733 -804.125 547.375 C-802.784 548.302 -801.442 549.229 -800.102 550.156 C-796.117 552.907 -792.122 555.642 -788.125 558.375 C-785.716 560.023 -783.307 561.67 -780.898 563.318 C-779.272 564.43 -777.645 565.541 -776.018 566.651 C-772.365 569.146 -768.719 571.651 -765.102 574.199 C-764.498 574.623 -763.894 575.047 -763.272 575.484 C-761.677 576.607 -760.087 577.735 -758.496 578.863 C-756.125 580.375 -756.125 580.375 -754.125 580.375 C-749.391 570.363 -744.693 560.333 -740.019 550.293 C-739.422 549.012 -738.824 547.731 -738.226 546.45 C-737.378 544.634 -736.533 542.817 -735.688 541 C-735.194 539.94 -734.7 538.881 -734.191 537.789 C-733.125 535.375 -733.125 535.375 -733.125 534.375 C-762.165 534.045 -791.205 533.715 -821.125 533.375 Z M-82.125 534.375 C-78.694 543.473 -75.067 552.472 -71.303 561.436 C-70.424 563.531 -69.551 565.629 -68.678 567.727 C-68.115 569.07 -67.552 570.414 -66.988 571.758 C-66.486 572.958 -65.984 574.158 -65.466 575.395 C-64.125 578.375 -64.125 578.375 -62.125 581.375 C-58.632 580.104 -55.862 578.64 -52.902 576.398 C-52.123 575.814 -51.344 575.23 -50.541 574.629 C-49.723 574.009 -48.905 573.389 -48.062 572.75 C-41.906 568.144 -35.714 563.696 -29.273 559.492 C-24.382 556.203 -19.635 552.717 -14.867 549.251 C-8.355 544.523 -1.768 539.917 4.875 535.375 C4.71 535.045 4.71 535.045 3.875 533.375 C-6.009 533.352 -15.893 533.334 -25.777 533.323 C-30.368 533.318 -34.958 533.311 -39.548 533.3 C-43.983 533.289 -48.418 533.283 -52.853 533.28 C-54.54 533.278 -56.227 533.275 -57.913 533.269 C-74.185 533.219 -74.185 533.219 -82.125 534.375 Z M-113.125 555.375 C-114.063 556.665 -114.951 557.991 -115.82 559.328 C-116.372 560.176 -116.924 561.025 -117.492 561.898 C-117.782 562.348 -117.782 562.348 -119.25 564.625 C-119.807 565.478 -120.364 566.332 -120.938 567.211 C-122.093 568.995 -123.229 570.792 -124.346 572.601 C-126.125 575.375 -126.125 575.375 -128.101 577.907 C-135.254 587.882 -133.903 598.905 -133.562 610.625 C-133.527 612.738 -133.495 614.852 -133.467 616.965 C-133.39 622.103 -133.27 627.238 -133.125 632.375 C-129.297 630.914 -126.526 629.307 -123.312 626.75 C-116.867 621.8 -110.146 617.302 -103.375 612.812 C-102.278 612.085 -101.181 611.358 -100.052 610.609 C-97.411 608.862 -94.769 607.117 -92.125 605.375 C-92.658 601.674 -93.337 598.428 -94.84 595.004 C-95.192 594.193 -95.544 593.381 -95.906 592.546 C-96.288 591.685 -96.669 590.824 -97.062 589.938 C-97.259 589.487 -97.259 589.487 -98.252 587.21 C-99.093 585.282 -99.937 583.355 -100.784 581.429 C-102.647 577.187 -104.489 572.936 -106.332 568.685 C-108.259 564.247 -110.191 559.811 -112.125 555.375 C-112.455 555.375 -112.785 555.375 -113.125 555.375 Z M-705.125 556.375 C-707.192 561.156 -709.255 565.94 -711.314 570.724 C-712.013 572.347 -712.713 573.97 -713.415 575.592 C-715.683 580.84 -717.923 586.099 -720.125 591.375 C-720.603 592.514 -721.08 593.652 -721.572 594.826 C-721.956 595.795 -722.339 596.763 -722.734 597.762 C-723.059 598.572 -723.383 599.383 -723.718 600.218 C-724.125 602.375 -724.125 602.375 -723.48 604.469 C-721.843 606.772 -720.204 607.948 -717.828 609.477 C-717.393 609.761 -717.393 609.761 -715.191 611.198 C-714.262 611.793 -713.332 612.387 -712.375 613 C-710.464 614.245 -708.553 615.493 -706.645 616.742 C-705.706 617.355 -704.767 617.969 -703.799 618.601 C-699.044 621.756 -694.444 625.114 -689.84 628.484 C-687.636 630.019 -685.565 631.275 -683.125 632.375 C-682.668 627.045 -682.371 621.718 -682.125 616.375 C-682.072 615.314 -682.019 614.254 -681.965 613.161 C-680.833 587.616 -680.833 587.616 -689.125 577.375 C-690.223 575.767 -691.307 574.149 -692.379 572.523 C-694.643 569.103 -696.911 565.686 -699.234 562.305 C-699.719 561.596 -700.203 560.886 -700.702 560.156 C-702.125 558.375 -702.125 558.375 -705.125 556.375 Z M-181.125 592.375 C-181.358 593.047 -181.592 593.718 -181.832 594.41 C-187.4 609.659 -194.387 624.421 -203.188 638.062 C-207.541 644.918 -209.52 650.206 -210.125 658.375 C-210.498 661.188 -210.908 663.995 -211.314 666.804 C-211.734 669.7 -212.145 672.596 -212.539 675.496 C-212.596 675.906 -212.596 675.906 -212.881 677.978 C-213.134 680.46 -213.167 682.882 -213.125 685.375 C-198.537 677.901 -184.528 668.796 -171.125 659.375 C-170.205 658.774 -169.284 658.174 -168.336 657.555 C-166.125 655.375 -166.125 655.375 -165.531 652.539 C-165.562 651.371 -165.593 650.203 -165.625 649 C-165.641 648.337 -165.658 647.675 -165.674 646.992 C-167.295 603.549 -167.295 603.549 -174.562 595.812 C-175.159 595.151 -175.756 594.49 -176.371 593.809 C-178.125 592.375 -178.125 592.375 -181.125 592.375 Z M-741.125 636.375 C-747.213 650.192 -753.109 664.079 -758.846 678.045 C-762.103 685.961 -765.467 693.812 -769.016 701.602 C-770.125 704.375 -770.125 704.375 -770.125 707.375 C-764.977 705.638 -760.625 702.693 -756.062 699.812 C-754.184 698.638 -752.305 697.465 -750.426 696.293 C-749.416 695.663 -748.406 695.033 -747.366 694.384 C-742.122 691.133 -736.849 687.93 -731.573 684.731 C-729.759 683.63 -727.946 682.528 -726.134 681.425 C-721.115 678.375 -716.092 675.337 -711.008 672.398 C-710.292 671.982 -709.575 671.565 -708.837 671.136 C-707.038 670.094 -705.23 669.066 -703.422 668.039 C-703.043 667.764 -703.043 667.764 -701.125 666.375 C-701.125 665.385 -701.125 664.395 -701.125 663.375 C-702.982 661.74 -702.982 661.74 -705.594 659.969 C-706.551 659.312 -707.508 658.655 -708.494 657.979 C-709.527 657.284 -710.56 656.59 -711.625 655.875 C-712.665 655.165 -713.705 654.456 -714.776 653.725 C-716.886 652.285 -718.999 650.85 -721.114 649.418 C-723.814 647.586 -726.501 645.737 -729.18 643.875 C-729.918 643.363 -730.656 642.85 -731.416 642.322 C-732.782 641.373 -734.148 640.424 -735.514 639.475 C-740.011 636.375 -740.011 636.375 -741.125 636.375 Z M-78.125 637.375 C-80.602 638.867 -80.602 638.867 -83.75 641.25 C-90.866 646.534 -98.162 651.533 -105.5 656.5 C-106.648 657.278 -107.796 658.057 -108.944 658.835 C-111.67 660.683 -114.397 662.53 -117.125 664.375 C-112.966 669.015 -108.304 671.892 -102.938 675 C-101.123 676.07 -99.31 677.14 -97.496 678.211 C-97.042 678.478 -97.042 678.478 -94.746 679.827 C-90.974 682.055 -87.234 684.335 -83.5 686.625 C-82.799 687.054 -82.097 687.484 -81.374 687.926 C-76.674 690.804 -71.981 693.695 -67.289 696.586 C-66.698 696.95 -66.106 697.315 -65.497 697.69 C-62.541 699.511 -59.585 701.333 -56.63 703.157 C-55.556 703.819 -54.482 704.482 -53.375 705.164 C-52.893 705.462 -52.893 705.462 -50.453 706.967 C-48.125 708.375 -48.125 708.375 -46.125 709.375 C-48.703 701.046 -52.121 693.122 -55.562 685.125 C-56.82 682.194 -58.075 679.261 -59.328 676.328 C-59.645 675.588 -59.961 674.847 -60.287 674.084 C-62.449 669.01 -64.547 663.912 -66.609 658.797 C-67.156 657.448 -67.702 656.1 -68.248 654.751 C-69.028 652.823 -69.805 650.895 -70.569 648.961 C-71.27 647.189 -71.984 645.422 -72.699 643.656 C-72.898 643.156 -72.898 643.156 -73.905 640.627 C-75.125 638.375 -75.125 638.375 -78.125 637.375 Z M-256 694.938 C-261.08 699.611 -266.467 703.752 -272 707.875 C-272.439 708.205 -272.439 708.205 -274.66 709.875 C-281.858 715.258 -281.858 715.258 -285.629 717.637 C-298.215 725.899 -305.085 740.446 -312.125 753.375 C-297.578 755.757 -297.578 755.757 -291.148 756.172 C-288.813 756.329 -286.485 756.589 -284.164 756.891 C-279.891 757.328 -276.345 757.318 -272.125 756.375 C-268.642 753.297 -266.894 749.794 -265.065 745.554 C-264.024 743.141 -262.896 740.779 -261.758 738.41 C-256.663 727.605 -252.227 717.094 -250.938 705.125 C-250.856 704.457 -250.774 703.79 -250.689 703.102 C-250.231 699.174 -250.045 695.327 -250.125 691.375 C-253.078 691.375 -253.888 692.897 -256 694.938 Z M-687.738 698.543 C-688.11 698.78 -688.11 698.78 -689.989 699.981 C-690.797 700.503 -691.605 701.025 -692.438 701.562 C-694.17 702.669 -695.903 703.774 -697.637 704.879 C-698.54 705.455 -699.442 706.032 -700.373 706.625 C-711.218 713.519 -722.154 720.269 -733.25 726.75 C-738.091 729.581 -742.919 732.423 -747.688 735.375 C-748.555 735.911 -749.423 736.447 -750.316 737 C-750.615 737.227 -750.615 737.227 -752.125 738.375 C-752.125 739.035 -752.125 739.695 -752.125 740.375 C-746.419 740.809 -740.712 741.236 -735.005 741.657 C-733.07 741.8 -731.135 741.946 -729.201 742.093 C-696.167 744.609 -696.167 744.609 -686.188 740.875 C-685.492 740.637 -684.797 740.398 -684.08 740.152 C-682.421 739.58 -680.772 738.981 -679.125 738.375 C-678.812 729.636 -679.369 721.021 -680.062 712.312 C-680.106 711.759 -680.106 711.759 -680.326 708.959 C-681.053 700.193 -681.053 700.193 -682.125 696.375 C-684.667 696.375 -685.607 697.17 -687.738 698.543 Z M-135.125 697.375 C-137.105 713.545 -139.085 729.715 -141.125 746.375 C-137.978 747.424 -136.257 747.386 -132.99 747.137 C-131.94 747.06 -130.891 746.983 -129.81 746.904 C-128.673 746.815 -127.535 746.725 -126.363 746.633 C-125.774 746.589 -125.774 746.589 -122.792 746.367 C-119.007 746.083 -115.222 745.792 -111.438 745.5 C-107.708 745.218 -103.978 744.937 -100.248 744.656 C-97.837 744.475 -95.427 744.292 -93.016 744.109 C-85.387 743.53 -77.758 743.021 -70.118 742.617 C-67.378 742.395 -64.803 741.981 -62.125 741.375 C-65.388 738.686 -68.682 736.299 -72.281 734.082 C-73.29 733.46 -74.298 732.838 -75.337 732.197 C-76.422 731.534 -77.507 730.871 -78.625 730.188 C-79.185 729.844 -79.746 729.5 -80.323 729.146 C-93.051 721.34 -105.929 713.789 -118.839 706.289 C-121.098 704.973 -123.354 703.653 -125.606 702.325 C-126.698 701.683 -127.789 701.04 -128.914 700.379 C-129.893 699.801 -130.872 699.223 -131.881 698.627 C-134.125 697.375 -134.125 697.375 -135.125 697.375 Z M-647.125 699.375 C-646.089 708.772 -645.008 718.101 -643.125 727.375 C-636.3 725.812 -629.593 723.982 -622.938 721.812 C-622.278 721.603 -621.619 721.393 -620.939 721.177 C-619.313 720.636 -617.716 720.012 -616.125 719.375 C-615.795 718.715 -615.465 718.055 -615.125 717.375 C-615.757 717.035 -616.388 716.694 -617.039 716.344 C-624.803 712.137 -632.468 707.773 -640.125 703.375 C-642.458 702.041 -644.791 700.708 -647.125 699.375 Z M-171.125 700.375 C-173.064 701.509 -175.003 702.643 -176.941 703.777 C-177.243 703.954 -177.243 703.954 -178.771 704.846 C-182.091 706.788 -185.407 708.736 -188.716 710.697 C-200.042 717.399 -200.042 717.399 -205.109 719.945 C-214.76 724.882 -218.433 730.715 -222.345 740.485 C-223.448 743.157 -224.781 745.693 -226.125 748.25 C-228.125 752.132 -228.125 752.132 -228.125 754.375 C-210.723 753.768 -193.445 752.091 -176.125 750.375 C-175.243 743.738 -174.371 737.099 -173.507 730.459 C-173.211 728.2 -172.913 725.941 -172.613 723.682 C-172.182 720.438 -171.76 717.194 -171.34 713.949 C-171.272 713.443 -171.272 713.443 -170.926 710.881 C-170.806 709.94 -170.686 708.999 -170.562 708.03 C-170.453 707.202 -170.345 706.373 -170.233 705.52 C-170.125 703.375 -170.125 703.375 -171.125 700.375 Z M-810.125 706.375 C-810.125 709.375 -810.125 709.375 -810.125 709.375 Z M-812.125 709.375 C-812.742 710.5 -813.36 711.626 -813.996 712.785 C-818.003 720.059 -822.03 727.297 -826.375 734.375 C-832.556 744.486 -838.004 755.016 -843.57 765.473 C-844.82 767.805 -846.087 770.125 -847.379 772.434 C-857.554 790.808 -865.764 810.371 -872.125 830.375 C-872.395 831.211 -872.666 832.047 -872.944 832.909 C-880.877 857.59 -887.53 885.139 -876 909.75 C-868.75 923.081 -858.615 931.633 -844.188 936.188 C-841.512 936.969 -838.826 937.687 -836.125 938.375 C-835.655 938.499 -835.655 938.499 -833.277 939.125 C-815.736 942.845 -796.561 940.65 -779.125 937.375 C-778.295 937.225 -777.464 937.074 -776.608 936.919 C-722.103 926.759 -668.955 899.214 -621.125 872.375 C-620.096 871.799 -619.067 871.223 -618.007 870.629 C-603.181 862.291 -588.825 853.429 -574.651 844.031 C-571.037 841.662 -567.367 839.389 -563.688 837.125 C-556.396 832.614 -549.332 827.811 -542.306 822.899 C-539.975 821.27 -537.64 819.647 -535.305 818.023 C-466.655 770.222 -466.655 770.222 -448.125 751.375 C-453.194 749.366 -458.197 747.771 -463.481 746.437 C-487.258 740.405 -508.905 730.416 -529.777 717.652 C-532.083 716.398 -533.531 715.674 -536.125 715.375 C-538.668 716.42 -538.668 716.42 -541.527 718.059 C-542.576 718.653 -543.625 719.247 -544.705 719.859 C-545.813 720.504 -546.921 721.148 -548.062 721.812 C-549.197 722.46 -550.331 723.107 -551.5 723.774 C-557.127 727 -562.697 730.296 -568.188 733.75 C-575.24 738.169 -582.61 741.819 -590.125 745.375 C-590.796 745.694 -591.466 746.014 -592.157 746.343 C-610.612 755.053 -629.933 761.796 -649.312 768.125 C-650.342 768.465 -651.371 768.805 -652.431 769.156 C-655.284 770.069 -658.15 770.917 -661.029 771.742 C-662.514 772.191 -663.989 772.671 -665.457 773.173 C-684.723 779.756 -702.774 778.368 -722.696 776.768 C-726.23 776.49 -729.766 776.242 -733.302 775.994 C-759.834 774.132 -786.337 771.839 -812.794 769.11 C-819.564 768.416 -826.334 767.835 -833.125 767.375 C-829.338 755.079 -824.627 743.517 -819.248 731.84 C-817.434 727.857 -815.699 723.845 -814 719.812 C-813.846 719.458 -813.846 719.458 -813.069 717.666 C-811.008 712.725 -811.008 712.725 -812.125 709.375 Z M-354.465 745.266 C-355.354 745.479 -356.242 745.692 -357.158 745.912 C-358.117 746.147 -359.075 746.382 -360.062 746.625 C-366.609 748.197 -373.074 749.59 -379.754 750.445 C-393.086 752.161 -402.92 757.001 -413.172 765.887 C-416.765 768.914 -420.513 771.677 -424.312 774.438 C-424.649 774.682 -424.649 774.682 -426.351 775.921 C-427.941 777.075 -429.533 778.225 -431.125 779.375 C-427.779 783.053 -423.794 784.582 -419.312 786.562 C-418.915 786.747 -418.915 786.747 -416.904 787.678 C-412.532 789.627 -408.989 791.139 -404.125 790.375 C-401.663 789.344 -399.493 788.302 -397.188 787 C-396.543 786.646 -395.898 786.291 -395.234 785.926 C-385.055 780.222 -375.276 773.612 -366.125 766.375 C-365.576 765.945 -365.027 765.514 -364.461 765.071 C-359.914 761.356 -356.546 757.295 -353.188 752.5 C-352.694 751.812 -352.201 751.123 -351.693 750.414 C-350.496 748.74 -349.309 747.058 -348.125 745.375 C-350.719 744.078 -351.677 744.576 -354.465 745.266 Z M-350.125 796.375 C-351.488 797.27 -352.851 798.164 -354.215 799.059 C-357.313 801.102 -360.394 803.17 -363.465 805.252 C-366.01 806.973 -368.567 808.674 -371.125 810.375 C-367.296 813.676 -362.834 815.434 -358.25 817.438 C-356.461 818.227 -354.671 819.017 -352.883 819.809 C-351.947 820.222 -351.012 820.636 -350.048 821.062 C-347.034 822.416 -344.043 823.813 -341.055 825.223 C-340.065 825.686 -339.074 826.149 -338.054 826.627 C-336.127 827.53 -334.204 828.442 -332.286 829.364 C-331.408 829.772 -330.53 830.181 -329.625 830.602 C-329.238 830.785 -329.238 830.785 -327.281 831.713 C-324.723 832.498 -323.573 832.432 -321.125 831.375 C-319.76 829.971 -319.76 829.971 -318.531 828.156 C-318.064 827.479 -317.597 826.802 -317.115 826.105 C-316.623 825.369 -316.132 824.633 -315.625 823.875 C-314.563 822.327 -313.5 820.778 -312.438 819.23 C-311.894 818.43 -311.35 817.63 -310.789 816.806 C-308.115 812.9 -305.367 809.046 -302.625 805.188 C-299.39 800.626 -296.204 796.044 -293.125 791.375 C-293.84 791.289 -294.556 791.204 -295.293 791.115 C-298.57 790.723 -301.848 790.33 -305.125 789.938 C-306.25 789.803 -307.376 789.668 -308.535 789.529 C-325.439 787.503 -325.439 787.503 -328.348 786.961 C-336.624 786.012 -343.58 792.016 -350.125 796.375 Z M-196.262 786.996 C-197.104 787.06 -197.947 787.125 -198.815 787.191 C-200.582 787.326 -202.349 787.463 -204.116 787.602 C-206.815 787.813 -209.514 788.017 -212.213 788.221 C-213.938 788.354 -215.662 788.487 -217.387 788.621 C-218.189 788.682 -218.991 788.742 -219.818 788.804 C-223.656 789.109 -227.364 789.503 -231.125 790.375 C-229.687 794.254 -227.874 797.696 -225.773 801.258 C-225.442 801.821 -225.111 802.385 -224.77 802.965 C-223.683 804.812 -222.592 806.656 -221.5 808.5 C-220.738 809.793 -219.976 811.086 -219.215 812.379 C-213.35 822.333 -207.45 832.267 -201.55 842.201 C-196.995 849.881 -192.499 857.59 -188.125 865.375 C-187.795 865.375 -187.465 865.375 -187.125 865.375 C-184.358 839.051 -181.604 812.728 -179.125 786.375 C-184.876 786.31 -190.53 786.546 -196.262 786.996 Z M-466.75 809.062 C-472.773 814.333 -479.04 819.2 -485.475 823.958 C-491.871 828.749 -491.871 828.749 -494.125 832.375 C-489.197 830.829 -484.525 828.896 -479.805 826.82 C-479.024 826.477 -478.243 826.135 -477.438 825.781 C-475.795 825.059 -474.153 824.334 -472.511 823.608 C-470.005 822.502 -467.493 821.409 -464.98 820.316 C-463.38 819.61 -461.78 818.903 -460.18 818.195 C-459.432 817.872 -458.684 817.549 -457.913 817.216 C-453.93 815.435 -451.01 813.771 -448.125 810.375 C-449.724 809.367 -451.329 808.369 -452.938 807.375 C-453.831 806.818 -454.724 806.261 -455.645 805.688 C-460.796 802.962 -462.957 805.661 -466.75 809.062 Z M-263.125 808.375 C-264.661 810.508 -266.143 812.657 -267.605 814.84 C-268.056 815.507 -268.506 816.173 -268.971 816.86 C-270.421 819.009 -271.867 821.161 -273.312 823.312 C-274.269 824.73 -275.225 826.147 -276.182 827.564 C-280.852 834.486 -285.506 841.419 -290.125 848.375 C-287.461 851.525 -284.28 852.94 -280.598 854.711 C-279.945 855.027 -279.292 855.343 -278.619 855.668 C-276.478 856.702 -274.333 857.726 -272.188 858.75 C-270.704 859.463 -269.22 860.176 -267.737 860.889 C-257.996 865.564 -248.228 870.181 -238.438 874.75 C-237.282 875.291 -236.126 875.831 -234.936 876.388 C-233.86 876.887 -232.784 877.385 -231.676 877.898 C-230.744 878.331 -229.813 878.763 -228.853 879.208 C-225.987 880.434 -223.094 881.429 -220.125 882.375 C-221.47 878.831 -223.037 875.567 -224.891 872.262 C-225.444 871.273 -225.997 870.285 -226.567 869.266 C-227.164 868.209 -227.76 867.152 -228.375 866.062 C-228.996 864.958 -229.617 863.854 -230.257 862.716 C-236.757 851.197 -243.4 839.764 -250.125 828.375 C-250.707 827.388 -251.289 826.402 -251.888 825.385 C-253.566 822.545 -255.25 819.709 -256.938 816.875 C-257.192 816.444 -257.192 816.444 -258.483 814.264 C-258.949 813.486 -259.415 812.708 -259.895 811.906 C-260.303 811.221 -260.711 810.536 -261.132 809.83 C-261.46 809.35 -261.787 808.87 -262.125 808.375 C-262.455 808.375 -262.785 808.375 -263.125 808.375 Z M-391.125 841.375 C-391.125 869.425 -391.125 897.475 -391.125 926.375 C-390.465 926.375 -389.805 926.375 -389.125 926.375 C-387.795 924.443 -386.579 922.509 -385.375 920.5 C-381.657 914.498 -377.565 908.912 -373.188 903.375 C-368.581 897.544 -364.102 891.672 -359.835 885.589 C-355.992 880.128 -351.959 874.815 -347.882 869.527 C-344.125 864.593 -344.125 864.593 -344.125 862.375 C-349.69 859.699 -355.259 857.03 -360.83 854.367 C-362.724 853.461 -364.616 852.553 -366.507 851.644 C-369.233 850.333 -371.962 849.029 -374.691 847.727 C-375.53 847.321 -376.369 846.916 -377.233 846.498 C-378.034 846.118 -378.834 845.738 -379.658 845.346 C-380.353 845.013 -381.049 844.68 -381.765 844.337 C-384.795 843.102 -387.978 842.274 -391.125 841.375 Z M-434.582 844.445 C-435.24 844.764 -435.898 845.083 -436.577 845.411 C-437.98 846.091 -439.383 846.772 -440.786 847.454 C-442.889 848.477 -444.994 849.496 -447.1 850.516 C-455.137 854.411 -463.148 858.357 -471.125 862.375 C-467.45 868.001 -463.634 873.517 -459.75 879 C-454.791 886.006 -449.851 893.024 -444.938 900.062 C-444.255 901.04 -443.572 902.017 -442.869 903.024 C-438.293 909.61 -433.91 916.28 -429.727 923.121 C-429.198 923.865 -428.67 924.609 -428.125 925.375 C-427.465 925.375 -426.805 925.375 -426.125 925.375 C-426.042 907.55 -426.268 889.736 -426.589 871.913 C-426.65 868.453 -426.71 864.992 -426.77 861.531 C-426.886 854.812 -427.004 848.094 -427.125 841.375 C-429.6 841.375 -432.352 843.359 -434.582 844.445 Z " fill="currentColor" transform="translate(938.125,20.625)"/>
<path d="M0 0 C4.782 4.808 7.055 9.052 7.375 15.812 C7.207 22.119 5.441 26.466 1.059 31.016 C-4.528 36.077 -8.471 37.418 -16.008 37.348 C-22.076 36.643 -26.993 33.853 -31.438 29.75 C-35.375 22.82 -36.671 17.479 -34.859 9.582 C-32.74 3.216 -28.967 -0.902 -23 -4 C-14.22 -7.15 -7.305 -5.844 0 0 Z " fill="currentColor" transform="translate(947,116)"/>
<path d="M0 0 C3.686 3.051 5.742 4.982 6.266 9.969 C6.434 15.75 6.072 19.218 2.027 23.699 C-1.465 26.61 -4.436 27.181 -8.984 26.984 C-13.508 26.336 -16.273 24.474 -19.285 21.137 C-22.134 17.022 -22.615 13.645 -21.973 8.699 C-20.604 4.934 -18.71 2.252 -15.473 -0.176 C-10.188 -2.554 -5.194 -3.425 0 0 Z " fill="currentColor" transform="translate(853.97265625,135.30078125)"/>
<path d="M0 0 C4.051 3.813 5.858 8.097 6.625 13.562 C6.011 17.784 4.856 20.718 2.125 24 C-2.354 27.155 -6.554 27.777 -11.875 27 C-16.536 25.297 -19.313 23.271 -21.875 19 C-23.361 13.334 -23.115 9.854 -20.16 4.766 C-15.172 -2.088 -7.562 -2.63 0 0 Z " fill="currentColor" transform="translate(911.875,202)"/>
<path d="M0 0 C5.19 2.98 8.812 7.874 10.688 13.5 C11.622 21.523 10.453 27.888 5.688 34.5 C0.386 39.647 -4.873 40.812 -12.004 40.719 C-17.652 40.184 -22.315 37.389 -26.312 33.5 C-30.493 27.475 -32.247 21.843 -31.312 14.5 C-29.401 8.351 -25.67 3.997 -20.312 0.5 C-13.934 -2.543 -6.538 -2.842 0 0 Z " fill="currentColor" transform="translate(1011.3125,322.5)"/>
<path d="M0 0 C4.852 2.197 7.259 5.086 9.367 9.852 C10.435 13.476 10.275 16.452 9 20 C6.757 23.755 4.065 26.341 0 28 C-4.687 28.733 -8.144 28.444 -12.375 26.25 C-16.692 22.549 -18.598 20.046 -19.125 14.156 C-18.814 8.798 -16.14 5.06 -12.312 1.5 C-8.017 -0.445 -4.637 -0.799 0 0 Z " fill="currentColor" transform="translate(586,363)"/>
<path d="M0 0 C6.261 4.323 10.768 9.385 12.625 16.812 C13.456 23.938 11.483 28.812 7.625 34.812 C3.398 39.268 -1.915 41.588 -8.02 41.984 C-15.047 41.709 -20.332 39.795 -25.375 34.812 C-29.363 29.386 -31.19 23.932 -30.789 17.195 C-29.632 10.538 -26.368 6.287 -21.254 2.039 C-14.793 -2.178 -7.195 -2.532 0 0 Z " fill="currentColor" transform="translate(448.375,399.1875)"/>
<path d="M0 0 C3.133 1.567 3.273 4.12 4.383 7.371 C4.492 7.69 4.492 7.69 5.047 9.303 C5.509 10.653 5.968 12.004 6.423 13.356 C7.122 15.428 7.831 17.496 8.543 19.564 C12 29.692 12 29.692 12 32 C32.994 22.563 32.994 22.563 43 18 C41.025 24.332 38.632 30.346 35.875 36.375 C35.163 37.945 34.452 39.515 33.742 41.086 C33.587 41.426 33.587 41.426 32.8 43.15 C32 45 32 45 31 48 C40.57 51.96 50.14 55.92 60 60 C60 60.66 60 61.32 60 62 C56.05 63.428 52.099 64.852 48.147 66.272 C46.802 66.756 45.458 67.241 44.114 67.728 C42.184 68.426 40.252 69.119 38.32 69.812 C37.158 70.231 35.995 70.65 34.797 71.082 C32 72 32 72 30 72 C30.2 72.434 30.2 72.434 31.209 74.63 C32.684 77.843 34.148 81.061 35.609 84.28 C36.244 85.674 36.881 87.067 37.521 88.459 C38.44 90.456 39.348 92.458 40.254 94.461 C40.399 94.773 40.399 94.773 41.131 96.352 C41.815 97.876 42.415 99.436 43 101 C42.67 101.66 42.34 102.32 42 103 C41.599 102.821 41.599 102.821 39.569 101.914 C36.59 100.584 33.61 99.256 30.629 97.928 C29.34 97.353 28.051 96.778 26.762 96.202 C24.908 95.374 23.054 94.548 21.199 93.723 C20.084 93.225 18.968 92.728 17.819 92.215 C15 91 15 91 12 90 C11.878 90.698 11.755 91.395 11.629 92.114 C10.947 95.241 9.99 98.155 8.934 101.176 C8.732 101.754 8.732 101.754 7.713 104.682 C7.292 105.88 6.871 107.078 6.438 108.312 C6.225 108.921 6.225 108.921 5.15 112.002 C4.103 115.002 3.053 118.002 2 121 C1.34 121 0.68 121 0 121 C-1.428 116.908 -2.852 112.814 -4.272 108.72 C-4.756 107.326 -5.241 105.934 -5.728 104.541 C-6.425 102.541 -7.119 100.54 -7.812 98.539 C-8.231 97.335 -8.65 96.13 -9.082 94.889 C-10 92 -10 92 -10 90 C-20.198 93.949 -30.139 98.272 -40 103 C-39.423 98.596 -38.311 94.992 -36.496 90.945 C-36.003 89.837 -35.51 88.728 -35.002 87.586 C-34.486 86.444 -33.969 85.302 -33.438 84.125 C-32.917 82.96 -32.397 81.794 -31.861 80.594 C-30.58 77.726 -29.293 74.862 -28 72 C-28.605 71.825 -29.21 71.65 -29.834 71.469 C-35.99 69.658 -42.038 67.645 -48.062 65.438 C-48.489 65.286 -48.489 65.286 -50.646 64.518 C-51.455 64.222 -52.264 63.926 -53.098 63.621 C-53.825 63.357 -54.552 63.094 -55.301 62.822 C-57 62 -57 62 -58 60 C-53 58 -53 58 -28 48 C-28.447 47.056 -28.895 46.113 -29.355 45.141 C-40 22.58 -40 22.58 -40 19 C-35.916 20.298 -32.052 21.804 -28.164 23.602 C-27.101 24.091 -26.037 24.581 -24.941 25.086 C-23.847 25.594 -22.753 26.102 -21.625 26.625 C-20.507 27.141 -19.39 27.656 -18.238 28.188 C-15.491 29.456 -12.745 30.726 -10 32 C-9.755 30.764 -9.51 29.528 -9.258 28.254 C-7.938 22.315 -5.919 16.66 -3.875 10.938 C-3.502 9.881 -3.13 8.825 -2.746 7.736 C-1.835 5.156 -0.92 2.577 0 0 Z " fill="currentColor" transform="translate(656,454)"/>
<path d="M0 0 C3.4 2.678 4.385 6.263 5.699 10.223 C5.939 10.924 6.179 11.625 6.426 12.348 C6.93 13.827 7.43 15.307 7.926 16.788 C8.687 19.061 9.46 21.328 10.236 23.596 C10.725 25.034 11.212 26.472 11.699 27.91 C11.815 28.25 11.815 28.25 12.4 29.971 C14 34.766 14 34.766 14 37 C25.55 31.39 37.1 25.78 49 20 C49.165 20.33 49.165 20.33 50 22 C49.243 24.211 49.243 24.211 48.016 26.945 C47.795 27.443 47.795 27.443 46.68 29.961 C46.208 31.005 45.736 32.049 45.25 33.125 C36.438 52.84 36.438 52.84 38 57 C40.066 58.266 40.066 58.266 42.562 59.25 C43.389 59.585 44.215 59.92 45.066 60.266 C45.704 60.508 46.343 60.75 47 61 C42.708 66.257 38.179 70.632 33 75 C31.955 75.895 30.911 76.791 29.867 77.688 C27.485 79.734 25.101 81.779 22.715 83.82 C19.702 86.399 16.692 88.981 13.683 91.565 C11.376 93.544 9.066 95.519 6.755 97.495 C4.933 99.058 3.117 100.628 1.301 102.199 C0.117 103.216 -1.066 104.233 -2.25 105.25 C-2.799 105.728 -3.348 106.207 -3.914 106.699 C-7.773 110 -7.773 110 -10 110 C-10.33 108.02 -10.66 106.04 -11 104 C-11.558 104.241 -12.115 104.482 -12.69 104.731 C-24.066 109.646 -35.46 114.48 -47 119 C-44.703 111.554 -41.669 104.618 -38.375 97.562 C-37.872 96.475 -37.37 95.388 -36.852 94.268 C-33.323 86.645 -33.323 86.645 -32 84 C-35.698 82.487 -39.397 80.975 -43.096 79.465 C-44.964 78.702 -46.832 77.938 -48.699 77.174 C-54.77 74.696 -60.843 72.255 -67 70 C-64.424 67.424 -61.976 66.694 -58.566 65.398 C-58.25 65.278 -58.25 65.278 -56.646 64.667 C-55.306 64.159 -53.965 63.653 -52.624 63.149 C-50.571 62.378 -48.523 61.596 -46.475 60.812 C-45.172 60.32 -43.869 59.827 -42.566 59.336 C-41.38 58.888 -40.193 58.44 -38.971 57.978 C-36 57 -36 57 -33 57 C-37.456 44.914 -42.175 32.943 -47 21 C-42.592 22.384 -38.473 24.082 -34.289 26.039 C-33.676 26.325 -33.063 26.61 -32.431 26.905 C-30.495 27.809 -28.56 28.717 -26.625 29.625 C-25.304 30.242 -23.982 30.86 -22.66 31.477 C-19.438 32.981 -16.219 34.489 -13 36 C-10.764 32.646 -9.635 29.281 -8.398 25.488 C-8.157 24.76 -7.916 24.032 -7.667 23.282 C-6.899 20.96 -6.137 18.636 -5.375 16.312 C-4.855 14.736 -4.334 13.16 -3.812 11.584 C-2.537 7.724 -1.267 3.863 0 0 Z " fill="currentColor" transform="translate(529,455)"/>
<path d="M0 0 C4.852 2.197 7.259 5.086 9.367 9.852 C10.437 13.482 10.264 16.444 9 20 C7.065 23.471 4.757 25.613 1.188 27.438 C-4.377 28.42 -8.381 27.869 -13.375 25.188 C-16.527 22.561 -17.759 20.698 -18.336 16.633 C-18.425 10.905 -18.003 7.436 -14 3 C-9.784 -0.614 -5.318 -0.817 0 0 Z " fill="currentColor" transform="translate(400,494)"/>
<path d="M0 0 C3.763 2.248 6.314 4.941 8 9 C8.897 13.222 8.876 16.637 6.504 20.328 C0.936 26.764 0.936 26.764 -2.953 27.238 C-8.52 27.418 -11.614 26.759 -16 23 C-18.936 20.165 -19.768 17.223 -20.117 13.156 C-19.899 9.143 -18.508 6.112 -16 3 C-11.142 -0.914 -5.921 -2.129 0 0 Z " fill="currentColor" transform="translate(425,600)"/>
<path d="M0 0 C3.663 3.448 5.887 7.237 6.324 12.312 C5.986 18.04 4.298 21.112 0.125 25 C-3.659 27.417 -7.259 27.27 -11.586 26.684 C-15.496 25.516 -18.196 23.006 -20.875 20 C-22.731 16.288 -22.323 12.052 -21.875 8 C-17.392 -1.133 -9.339 -3.248 0 0 Z " fill="currentColor" transform="translate(661.875,619)"/>
<path d="M0 0 C5.36 3.898 9.714 8.612 11.75 15 C12.659 22.069 12.077 28.202 7.75 34 C2.836 39.343 -1.757 41.593 -9 42.438 C-14.404 42.251 -18.913 40.142 -23.25 37 C-28.562 30.969 -30.654 25.328 -30.523 17.371 C-29.759 10.74 -26.119 6.372 -21.129 2.227 C-14.689 -1.977 -7.243 -2.229 0 0 Z " fill="currentColor" transform="translate(69.25,640)"/>
<path d="M0 0 C5.748 3.185 9.614 7.872 11.555 14.129 C12.903 20.265 11.848 24.587 8.988 30.102 C5.266 35.818 0.641 38.449 -5.824 40.039 C-12.433 40.551 -18.732 38.443 -23.949 34.414 C-28.403 30.16 -30.089 25.178 -30.387 19.102 C-30.084 12.92 -28.396 8.006 -23.762 3.789 C-16.284 -1.977 -8.808 -3.66 0 0 Z " fill="currentColor" transform="translate(586.01171875,655.8984375)"/>
<path d="M0 0 C3.58 1.37 6.338 3.274 8.938 6.125 C11.017 11.752 10.916 16.985 8.438 22.438 C5.099 25.948 1.927 27.864 -3.02 28.094 C-7.887 27.721 -11.288 26.28 -15 23 C-17.676 18.511 -18.544 14.932 -17.641 9.855 C-16.232 5.775 -12.923 3.704 -9.625 1.188 C-6.113 -0.401 -3.828 -0.462 0 0 Z " fill="currentColor" transform="translate(385,785)"/>
<path d="M0 0 C5.114 4.498 7.969 8.744 8.918 15.547 C9.132 21.935 7.053 27.046 3 32 C-3.847 37.17 -9.607 37.756 -18 37 C-23.937 35.302 -27.578 32.032 -31 27 C-33.694 21.098 -33.845 15.092 -32 8.938 C-29.559 3.071 -24.632 -0.627 -19.125 -3.5 C-12.444 -4.569 -5.649 -3.892 0 0 Z " fill="currentColor" transform="translate(307,825)"/>
<path d="M0 0 C3.324 2.541 5.269 4.927 6.234 8.98 C6.909 15.052 5.679 18.139 2.234 22.98 C-1.436 26.232 -4.893 26.446 -9.621 26.266 C-13.841 25.704 -16.049 23.677 -19.016 20.793 C-21.233 17.229 -22.064 14.128 -21.766 9.98 C-20.746 6.05 -19.181 3.121 -15.996 0.555 C-10.668 -2.503 -5.444 -3.144 0 0 Z " fill="currentColor" transform="translate(198.765625,825.01953125)"/>
<path d="M0 0 C5.728 3.317 9.645 8.162 11.688 14.438 C12.441 20.793 12.439 27.041 9.164 32.684 C5.237 37.348 -0.61 41.073 -6.73 41.676 C-14.194 41.876 -19.473 40.969 -25.066 35.824 C-30.298 30.139 -31.817 24.618 -31.621 16.961 C-30.797 10.221 -27.288 5.897 -22.191 1.664 C-15.592 -2.644 -7.214 -3.232 0 0 Z " fill="currentColor" transform="translate(138.3125,868.5625)"/>
<path d="M0 0 C3.758 2.422 6.086 4.495 7.453 8.855 C8.283 13.319 7.993 16.239 5.688 20.188 C3.418 23.309 1.505 25.438 -2.188 26.812 C-8.592 27.536 -11.974 26.595 -17.188 22.812 C-20.623 19.044 -20.703 15.153 -20.535 10.25 C-20.009 6.564 -18.699 4.523 -16.188 1.812 C-10.798 -1.78 -6.068 -2.261 0 0 Z " fill="currentColor" transform="translate(223.1875,883.1875)"/>
</svg>
